<?xml version="1.0" encoding="UTF-8"?>
<svg xmlns="http://www.w3.org/2000/svg" viewBox="0 0 1200 1600" width="1200" height="1600">
  <defs>
    <marker id="arrow" markerWidth="8" markerHeight="8" refX="6" refY="4" orient="auto">
      <path d="M0,0 L8,4 L0,8 Z" fill="#333"/>
    </marker>
    <pattern id="fabric" width="6" height="6" patternUnits="userSpaceOnUse">
      <path d="M0,6 L6,0 M-1,1 L1,-1 M5,7 L7,5" stroke="#ddd" stroke-width="0.5"/>
    </pattern>
    <style>
      .title { font: bold 22px 'Helvetica Neue', Arial, sans-serif; fill: #111; }
      .subtitle { font: 14px 'Helvetica Neue', Arial, sans-serif; fill: #444; }
      .label { font: 12px 'Helvetica Neue', Arial, sans-serif; fill: #222; }
      .dim { font: 11px 'Helvetica Neue', Arial, sans-serif; fill: #0066aa; }
      .note { font: 11px 'Helvetica Neue', Arial, sans-serif; fill: #555; }
      .section-title { font: bold 14px 'Helvetica Neue', Arial, sans-serif; fill: #111; }
      .outline { fill: none; stroke: #111; stroke-width: 2; }
      .dim-line { stroke: #0066aa; stroke-width: 1; fill: none; marker-end: url(#arrow); marker-start: url(#arrow); }
      .dash { stroke-dasharray: 6 4; }
      .grid { stroke: #eee; stroke-width: 0.5; }
    </style>
  </defs>

  <!-- Background -->
  <rect width="1200" height="1600" fill="#fafafa"/>

  <!-- Header -->
  <text x="40" y="45" class="title">"%'! -! (/+</text>
  <text x="40" y="70" class="subtitle">@E8B5:BC@=0O H;O?0 A :>=8G5A:8< ?>;5< · >45;L: LAMPSHADE-01</text>
  <text x="40" y="92" class="note">0AHB01 G5@B560: 1:3 ·  07<5@ 3>;>2K: 5758 A< (AB0=40@B M)</text>
  <line x1="40" y1="105" x2="1160" y2="105" stroke="#ccc" stroke-width="1"/>

  <!-- ==================== FRONT VIEW ==================== -->
  <text x="40" y="135" class="section-title">1.  !  (D0A)</text>

  <!-- Grid -->
  <g opacity="0.4">
    <line x1="100" y1="160" x2="500" y2="160" class="grid"/><line x1="100" y1="200" x2="500" y2="200" class="grid"/>
    <line x1="100" y1="240" x2="500" y2="240" class="grid"/><line x1="100" y1="280" x2="500" y2="280" class="grid"/>
    <line x1="100" y1="320" x2="500" y2="320" class="grid"/><line x1="100" y1="360" x2="500" y2="360" class="grid"/>
    <line x1="100" y1="400" x2="500" y2="400" class="grid"/><line x1="100" y1="440" x2="500" y2="440" class="grid"/>
    <line x1="100" y1="480" x2="500" y2="480" class="grid"/><line x1="100" y1="520" x2="500" y2="520" class="grid"/>
    <line x1="140" y1="150" x2="140" y2="530" class="grid"/><line x1="180" y1="150" x2="180" y2="530" class="grid"/>
    <line x1="220" y1="150" x2="220" y2="530" class="grid"/><line x1="260" y1="150" x2="260" y2="530" class="grid"/>
    <line x1="300" y1="150" x2="300" y2="530" class="grid"/><line x1="340" y1="150" x2="340" y2="530" class="grid"/>
    <line x1="380" y1="150" x2="380" y2="530" class="grid"/><line x1="420" y1="150" x2="420" y2="530" class="grid"/>
    <line x1="460" y1="150" x2="460" y2="530" class="grid"/>
  </g>

  <!-- Hat front silhouette -->
  <g transform="translate(300, 480)">
    <!-- Left brim -->
    <path d="M-180,0 L-90,-155 Q-85,-160 -80,-158 L0,-55 Z" fill="url(#fabric)" stroke="#111" stroke-width="2"/>
    <!-- Right brim -->
    <path d="M180,0 L90,-155 Q85,-160 80,-158 L0,-55 Z" fill="url(#fabric)" stroke="#111" stroke-width="2"/>
    <!-- Crown -->
    <rect x="-35" y="-215" width="70" height="160" rx="8" fill="url(#fabric)" stroke="#111" stroke-width="2"/>
    <!-- Crown dome -->
    <ellipse cx="0" cy="-215" rx="35" ry="12" fill="url(#fabric)" stroke="#111" stroke-width="2"/>
    <!-- Band -->
    <rect x="-37" y="-58" width="74" height="14" fill="#e8e4dc" stroke="#111" stroke-width="1.5"/>
    <!-- Head opening (dashed) -->
    <ellipse cx="0" cy="5" rx="28" ry="8" fill="none" stroke="#999" stroke-width="1" class="dash"/>
  </g>

  <!-- Front dimensions -->
  <line x1="120" y1="480" x2="120" y2="265" class="dim-line"/>
  <text x="75" y="375" class="dim" transform="rotate(-90,75,375)">H :>@>=K = 17 A<</text>

  <line x1="120" y1="480" x2="120" y2="325" class="dim-line"/>
  <text x="55" y="405" class="dim" transform="rotate(-90,55,405)">;C18=0 ?>;O = 23 A<</text>

  <line x1="120" y1="480" x2="480" y2="480" class="dim-line"/>
  <text x="250" y="505" class="dim">1I0O H8@8=0 = 46 A<</text>

  <line x1="265" y1="422" x2="335" y2="422" class="dim-line"/>
  <text x="268" y="415" class="dim">Ř :>@>=K = 18 A<</text>

  <line x1="265" y1="437" x2="335" y2="437" class="dim-line"/>
  <text x="270" y="450" class="dim">5=B0 = 4 A<</text>

  <!-- Angle annotation -->
  <path d="M 120,480 L 200,480" stroke="#cc6600" stroke-width="1.5" fill="none"/>
  <path d="M 120,480 L 175,360" stroke="#cc6600" stroke-width="1.5" fill="none" stroke-dasharray="4 3"/>
  <text x="155" y="430" class="dim" fill="#cc6600">± H 38°</text>

  <!-- ==================== SIDE VIEW ==================== -->
  <text x="580" y="135" class="section-title">2.  !# (?@>D8;L)</text>

  <g transform="translate(780, 480)">
    <!-- Brim side -->
    <path d="M-200,0 Q-100,-10 0,-55 L200,0 Q100,-10 0,-55 Z" fill="url(#fabric)" stroke="#111" stroke-width="2"/>
    <!-- Crown side -->
    <path d="M-35,-55 L-35,-215 Q0,-228 35,-215 L35,-55 Z" fill="url(#fabric)" stroke="#111" stroke-width="2"/>
    <!-- Band -->
    <rect x="-37" y="-58" width="74" height="14" fill="#e8e4dc" stroke="#111" stroke-width="1.5"/>
    <!-- Brim edge wire -->
    <path d="M-200,0 Q-100,-10 0,-55" fill="none" stroke="#cc6600" stroke-width="1" stroke-dasharray="3 2"/>
    <path d="M200,0 Q100,-10 0,-55" fill="none" stroke="#cc6600" stroke-width="1" stroke-dasharray="3 2"/>
    <!-- Head opening -->
    <ellipse cx="0" cy="5" rx="28" ry="8" fill="none" stroke="#999" stroke-width="1" class="dash"/>
  </g>

  <line x1="580" y1="480" x2="980" y2="480" class="dim-line"/>
  <text x="720" y="505" class="dim">(8@8=0 ?>;O (@048CA) = 23 A<</text>

  <line x1="745" y1="480" x2="745" y2="265" class="dim-line"/>
  <text x="700" y="375" class="dim" transform="rotate(-90,700,375)">H >1I0O H 38 A<</text>

  <text x="580" y="530" class="note">>;5 A;53:0 87>3=CB> : :@0N (@048CA :@8287=K R H 80 A<)</text>

  <!-- ==================== TOP VIEW ==================== -->
  <text x="40" y="570" class="section-title">3.  ! %#</text>

  <g transform="translate(280, 720)">
    <!-- Outer brim circle -->
    <ellipse cx="0" cy="0" rx="115" ry="105" fill="url(#fabric)" stroke="#111" stroke-width="2"/>
    <!-- Crown top -->
    <ellipse cx="0" cy="0" rx="35" ry="32" fill="#e8e4dc" stroke="#111" stroke-width="2"/>
    <!-- Weave direction lines on brim -->
    <g opacity="0.3" stroke="#999" stroke-width="0.5">
      <line x1="-115" y1="0" x2="115" y2="0"/><line x1="0" y1="-105" x2="0" y2="105"/>
      <line x1="-80" y1="-75" x2="80" y2="75"/><line x1="80" y1="-75" x2="-80" y2="75"/>
    </g>
    <!-- Head opening -->
    <ellipse cx="0" cy="0" rx="28" ry="26" fill="#fafafa" stroke="#999" stroke-width="1" class="dash"/>
  </g>

  <line x1="165" y1="720" x2="395" y2="720" class="dim-line"/>
  <text x="220" y="710" class="dim">Ř 2=5H=89 H 46 A<</text>

  <line x1="245" y1="720" x2="315" y2="720" class="dim-line"/>
  <text x="252" y="740" class="dim">Ř :>@>=K = 18 A<</text>

  <!-- ==================== CROSS SECTION ==================== -->
  <text x="580" y="570" class="section-title">4.  ' !' (:>=AB@C:F8O)</text>

  <g transform="translate(780, 720)">
    <!-- Outer shell -->
    <path d="M-30,-5 L-30,-180 Q0,-195 30,-180 L30,-5 L50,-5 L50,25 L-50,25 L-50,-5 Z" fill="url(#fabric)" stroke="#111" stroke-width="2"/>
    <!-- Brim cross section -->
    <path d="M-50,25 L-50,30 L-130,30 L-130,20 L-50,20 Z" fill="url(#fabric)" stroke="#111" stroke-width="2"/>
    <path d="M50,25 L50,30 L130,30 L130,20 L50,20 Z" fill="url(#fabric)" stroke="#111" stroke-width="2"/>
    <!-- Wire in brim edge -->
    <circle cx="-130" cy="25" r="3" fill="none" stroke="#cc6600" stroke-width="1.5"/>
    <circle cx="130" cy="25" r="3" fill="none" stroke="#cc6600" stroke-width="1.5"/>
    <!-- Sweatband -->
    <rect x="-26" y="0" width="52" height="8" fill="#d4cfc5" stroke="#666" stroke-width="1"/>
    <!-- Stiffener layer -->
    <rect x="-28" y="-175" width="56" height="3" fill="#bbb" stroke="#666" stroke-width="0.5"/>
    <!-- Band -->
    <rect x="-32" y="-8" width="64" height="10" fill="#e8e4dc" stroke="#111" stroke-width="1"/>
    <!-- Labels -->
    <text x="-120" y="55" class="note" font-size="10">1  >1>;>G:0 (B:0=L)</text>
    <text x="-120" y="70" class="note" font-size="10">2  ?@>2>;>:0 2 :@05 ?>;O</text>
    <text x="-120" y="85" class="note" font-size="10">3  ?>B=8: (E;>?>:)</text>
    <text x="-120" y="100" class="note" font-size="10">4  4C1;5@8=/:0@B>= (6QAB:>ABL)</text>
    <text x="-120" y="115" class="note" font-size="10">5  45:>@0B82=0O ;5=B0</text>
    <!-- Callout lines -->
    <line x1="-130" y1="25" x2="-95" y2="50" stroke="#cc6600" stroke-width="0.8"/>
    <line x1="0" y1="4" x2="60" y2="55" stroke="#666" stroke-width="0.8"/>
    <line x1="0" y1="-173" x2="60" y2="70" stroke="#666" stroke-width="0.8"/>
  </g>

  <!-- ==================== PATTERN PIECES ==================== -->
  <text x="40" y="870" class="section-title">5. +  (@072Q@B:0 45B0;59)</text>

  <!-- Brim pattern (annular sector) -->
  <g transform="translate(200, 1020)">
    <text x="-60" y="-30" class="label">5B0;L   >;5 (2 HB., 75@:0;L=>)</text>
    <path d="M-120,0 A120,120 0 0,1 120,0 L60,0 A60,60 0 0,0 -60,0 Z" fill="#f0ece4" stroke="#111" stroke-width="1.5"/>
    <path d="M-60,0 A60,60 0 0,1 60,0" fill="none" stroke="#0066aa" stroke-width="1" class="dash"/>
    <text x="-30" y="50" class="dim">R 2=CB@. = 9 A<</text>
    <text x="-30" y="110" class="dim">R 2=5H. = 32 A<</text>
    <text x="-50" y="-10" class="dim">#3>; A5:B>@0 = 180°</text>
    <text x="-80" y="145" class="note">@8?CA: =0 H>2: 1 A< ?> 2=CB@. >:@C6=>AB8</text>
  </g>

  <!-- Crown pattern -->
  <g transform="translate(550, 1000)">
    <text x="-40" y="-20" class="label">5B0;L   >@>=0 (1 HB.)</text>
    <rect x="-30" y="0" width="60" height="170" rx="5" fill="#f0ece4" stroke="#111" stroke-width="1.5"/>
    <text x="-25" y="90" class="dim" transform="rotate(-90,-10,90)">17 A<</text>
    <text x="-5" y="195" class="dim">Ř 18 A< (H56.5 A< ?> >:@C6=>AB8)</text>
    <text x="-60" y="220" class="note">5@E: A;53:0 2K?C:;K9 (2KB0G:8 8;8 D>@<>2:0)</text>
  </g>

  <!-- Band pattern -->
  <g transform="translate(820, 1020)">
    <text x="-30" y="-20" class="label">5B0;L   5=B0 (1 HB.)</text>
    <rect x="-80" y="0" width="160" height="16" fill="#e8e4dc" stroke="#111" stroke-width="1.5"/>
    <text x="-10" y="35" class="dim">56.5 A< × 4 A<</text>
  </g>

  <!-- ==================== SPECIFICATIONS ==================== -->
  <rect x="40" y="1260" width="1120" height="310" fill="#fff" stroke="#ccc" stroke-width="1" rx="4"/>
  <text x="60" y="1290" class="section-title">6. !&$&/ "   "/</text>

  <text x="60" y="1320" class="label" font-weight="bold">0B5@80;K:</text>
  <text x="60" y="1342" class="note">" A=>2=0O B:0=L: ;Q= A@54=59 ?;>B=>AB8 (280320 3/<˛) 8;8 ?;>B=K9 E;>?>:-:0=20A, F25B  off-white / ivory</text>
  <text x="60" y="1362" class="note">" C1;5@8=: B>;ABK9 =5B:0=K9 4C1;5@8= 8;8 :0@B>= 4;O 3>;>2=KE C1>@>2 (:>@>=0 + ?>;5)</text>
  <text x="60" y="1382" class="note">" @>2>;>:0: AB0;L=0O ?@>2>;>:0 Ř 1.52 << 2 ?>43815 :@0O ?>;O (>1O70B5;L=>!)</text>
  <text x="60" y="1402" class="note">" >B=8:: E;>?:>20O ;5=B0 2.5 A<, 4;8=0 58 A<</text>
  <text x="60" y="1422" class="note">" 8BL: ?>;8MAB5@, F25B 2 B>= B:0=8</text>

  <text x="60" y="1455" class="label" font-weight="bold">>A;54>20B5;L=>ABL 873>B>2;5=8O:</text>
  <text x="60" y="1477" class="note">1.  0A:@>9 45B0;59 ?> 2K:@>9:0< A ?@8?CA:0<8 1 A<</text>
  <text x="60" y="1497" class="note">2. @8:;59:0 4C1;5@8=0 : :>@>=5 8 ?>;N (CBN3>< 8;8 :;55<)</text>
  <text x="60" y="1517" class="note">3. !1>@:0 :>@>=K: AH8BL 1>:>2>9 H>2, AD>@<8@>20BL :C?>; (2KB0G:8 46 HB. 8;8 B5@<>D>@<>2:0)</text>
  <text x="60" y="1537" class="note">4. H8BL ?@>2>;>:C 2 ?>4381 :@0O ?>;O ’ ?@8AB@>G8BL ?>;5 : >A=>20=8N :>@>=K</text>
  <text x="60" y="1557" class="note">5. #AB0=>28BL ?>B=8:, >1H8BL ;5=B>9 ABK: :>@>=K 8 ?>;O, >BCBN68BL, D8=0;L=0O D>@<>2:0 C3;0 38°</text>

  <!-- Footer -->
  <text x="40" y="1590" class="note">-A:87 A>740= ?> @5D5@5=AC · 0B0: 13.06.2026 · A5 @07<5@K 2 A0=B8<5B@0E, 4>?CA: ±0.5 A<</text>
</svg>
